solid Mesh
  facet normal 0 0 -1
    outer loop
      vertex -0.5 0.5 0
      vertex 0.5 0.5 0
      vertex -0.5 -0.5 0
    endloop
  endfacet
  facet normal 0 0 -1
    outer loop
      vertex 0.5 0.5 0
      vertex 0.5 -0.5 0
      vertex -0.5 -0.5 0
    endloop
  endfacet
  facet normal 0 0 1
    outer loop
      vertex 0.5 0.5 0.01
      vertex -0.5 0.5 0.01
      vertex 0.5 -0.5 0.01
    endloop
  endfacet
  facet normal 0 0 1
    outer loop
      vertex -0.5 0.5 0.01
      vertex -0.5 -0.5 0.01
      vertex 0.5 -0.5 0.01
    endloop
  endfacet
  facet normal -1 0 0
    outer loop
      vertex -0.5 -0.5 0.01
      vertex -0.5 0.5 0.01
      vertex -0.5 -0.5 0
    endloop
  endfacet
  facet normal -1 0 0
    outer loop
      vertex -0.5 0.5 0.01
      vertex -0.5 0.5 0
      vertex -0.5 -0.5 0
    endloop
  endfacet
  facet normal 0 1 0
    outer loop
      vertex -0.5 0.5 0.01
      vertex 0.5 0.5 0.01
      vertex -0.5 0.5 0
    endloop
  endfacet
  facet normal 0 1 0
    outer loop
      vertex 0.5 0.5 0.01
      vertex 0.5 0.5 0
      vertex -0.5 0.5 0
    endloop
  endfacet
  facet normal 0 -1 0
    outer loop
      vertex 0.5 -0.5 0.01
      vertex -0.5 -0.5 0.01
      vertex 0.5 -0.5 0
    endloop
  endfacet
  facet normal 0 -1 0
    outer loop
      vertex -0.5 -0.5 0.01
      vertex -0.5 -0.5 0
      vertex 0.5 -0.5 0
    endloop
  endfacet
  facet normal 1 0 0
    outer loop
      vertex 0.5 0.5 0.01
      vertex 0.5 -0.5 0.01
      vertex 0.5 0.5 0
    endloop
  endfacet
  facet normal 1 0 0
    outer loop
      vertex 0.5 -0.5 0.01
      vertex 0.5 -0.5 0
      vertex 0.5 0.5 0
    endloop
  endfacet
endsolid Mesh
